<svg xmlns="http://www.w3.org/2000/svg" viewBox="0 0 512 512">
 <defs>
  <linearGradient id="wood" x1="0" y1="0" x2="1" y2="1"><stop stop-color="#543822"/><stop offset=".52" stop-color="#291b12"/><stop offset="1" stop-color="#160e0b"/></linearGradient>
  <linearGradient id="rim" x1="0" y1="0" x2="1" y2="1"><stop stop-color="#c09e6a"/><stop offset=".46" stop-color="#524b3c"/><stop offset=".8" stop-color="#989279"/><stop offset="1" stop-color="#3c382d"/></linearGradient>
  <radialGradient id="cobalt" cx="25%" cy="15%" r="110%"><stop stop-color="#aed6e7"/><stop offset=".3" stop-color="#3f94ba"/><stop offset=".7" stop-color="#215578"/><stop offset="1" stop-color="#123553"/></radialGradient>
  <radialGradient id="ruby" cx="25%" cy="15%" r="115%"><stop stop-color="#f5b38a"/><stop offset=".35" stop-color="#b54c3c"/><stop offset=".7" stop-color="#903335"/><stop offset="1" stop-color="#4e1d26"/></radialGradient>
  <radialGradient id="amber" cx="25%" cy="15%" r="115%"><stop stop-color="#fff0a7"/><stop offset=".38" stop-color="#e3ab4b"/><stop offset=".75" stop-color="#9c682d"/><stop offset="1" stop-color="#633b1d"/></radialGradient>
  <radialGradient id="moss" cx="25%" cy="15%" r="115%"><stop stop-color="#c0db9c"/><stop offset=".35" stop-color="#54915d"/><stop offset=".75" stop-color="#31634b"/><stop offset="1" stop-color="#1c4037"/></radialGradient>
  <radialGradient id="light"><stop stop-color="#fff4cc" stop-opacity=".24"/><stop offset="1" stop-color="#fff5d1" stop-opacity="0"/></radialGradient>
 </defs>
 <rect width="512" height="512" rx="91" fill="url(#wood)"/>
 <path d="M45 129H466M42 310H469" stroke="#92643c" stroke-opacity=".24" stroke-width="3"/>
 <circle cx="256" cy="256" r="198" fill="#181513" stroke="#0b0909" stroke-width="9"/>
 <circle cx="256" cy="256" r="191" fill="none" stroke="url(#rim)" stroke-width="19"/>
 <circle cx="256" cy="256" r="179" fill="#20201b"/>
 <path d="M 224 200.6 L 171.5 109.6 L 226.7 89.6 L 285.3 89.6 L 340.5 109.6 L 288 200.6 Z" fill="url(#cobalt)" stroke="#1c2625" stroke-width="13" stroke-linejoin="round"/>
<path d="M 224 200.6 L 171.5 109.6 L 226.7 89.6 L 285.3 89.6 L 340.5 109.6 L 288 200.6 Z" fill="none" stroke="#a6aba2" stroke-opacity=".53" stroke-width="2.2" stroke-linejoin="round"/>
<path d="M 288 200.6 L 340.5 109.6 L 385.5 147.4 L 414.8 198.2 L 425 256 L 320 256 Z" fill="url(#ruby)" stroke="#1c2625" stroke-width="13" stroke-linejoin="round"/>
<path d="M 288 200.6 L 340.5 109.6 L 385.5 147.4 L 414.8 198.2 L 425 256 L 320 256 Z" fill="none" stroke="#a6aba2" stroke-opacity=".53" stroke-width="2.2" stroke-linejoin="round"/>
<path d="M 320 256 L 425 256 L 414.8 313.8 L 385.5 364.6 L 340.5 402.4 L 288 311.4 Z" fill="url(#amber)" stroke="#1c2625" stroke-width="13" stroke-linejoin="round"/>
<path d="M 320 256 L 425 256 L 414.8 313.8 L 385.5 364.6 L 340.5 402.4 L 288 311.4 Z" fill="none" stroke="#a6aba2" stroke-opacity=".53" stroke-width="2.2" stroke-linejoin="round"/>
<path d="M 288 311.4 L 340.5 402.4 L 285.3 422.4 L 226.7 422.4 L 171.5 402.4 L 224 311.4 Z" fill="url(#moss)" stroke="#1c2625" stroke-width="13" stroke-linejoin="round"/>
<path d="M 288 311.4 L 340.5 402.4 L 285.3 422.4 L 226.7 422.4 L 171.5 402.4 L 224 311.4 Z" fill="none" stroke="#a6aba2" stroke-opacity=".53" stroke-width="2.2" stroke-linejoin="round"/>
<path d="M 224 311.4 L 171.5 402.4 L 126.5 364.6 L 97.2 313.8 L 87 256 L 192 256 Z" fill="url(#ruby)" stroke="#1c2625" stroke-width="13" stroke-linejoin="round"/>
<path d="M 224 311.4 L 171.5 402.4 L 126.5 364.6 L 97.2 313.8 L 87 256 L 192 256 Z" fill="none" stroke="#a6aba2" stroke-opacity=".53" stroke-width="2.2" stroke-linejoin="round"/>
<path d="M 192 256 L 87 256 L 97.2 198.2 L 126.5 147.4 L 171.5 109.6 L 224 200.6 Z" fill="url(#cobalt)" stroke="#1c2625" stroke-width="13" stroke-linejoin="round"/>
<path d="M 192 256 L 87 256 L 97.2 198.2 L 126.5 147.4 L 171.5 109.6 L 224 200.6 Z" fill="none" stroke="#a6aba2" stroke-opacity=".53" stroke-width="2.2" stroke-linejoin="round"/>

 <path d="M 224 200.6 L 288 200.6 L 320 256 L 288 311.4 L 224 311.4 L 192 256 Z" fill="url(#amber)" stroke="#1c2625" stroke-width="14" stroke-linejoin="round"/>
 <g opacity=".25" fill="none" stroke="#f5dfb9" stroke-width="3"><path d="M160 150Q253 129 333 173M164 300Q250 260 330 353M119 258Q190 215 393 229"/></g>
 <path d="M256 218c-6 10-15 19-12 32l12-3 12 3c3-13-6-22-12-32zm0 25c-12 3-19 13-23 23 14-5 18-1 23 14 5-15 9-19 23-14-4-10-11-20-23-23z" fill="#37261d" opacity=".73"/>
 <circle cx="224" cy="200.6" r="5" fill="#beb9a2" stroke="#303735" stroke-width="2"/><circle cx="288" cy="200.6" r="5" fill="#beb9a2" stroke="#303735" stroke-width="2"/><circle cx="320" cy="256" r="5" fill="#beb9a2" stroke="#303735" stroke-width="2"/><circle cx="288" cy="311.4" r="5" fill="#beb9a2" stroke="#303735" stroke-width="2"/><circle cx="224" cy="311.4" r="5" fill="#beb9a2" stroke="#303735" stroke-width="2"/><circle cx="192" cy="256" r="5" fill="#beb9a2" stroke="#303735" stroke-width="2"/>
 <circle cx="256" cy="256" r="185" fill="url(#light)"/>
 <circle cx="256" cy="256" r="187" fill="none" stroke="#d0ba92" stroke-width="1.8" opacity=".65"/>
 </svg>