<svg xmlns="http://www.w3.org/2000/svg" viewBox="0 0 512 512">
  <defs>
    <radialGradient id="bg" cx="50%" cy="38%" r="72%"><stop offset="0" stop-color="#5a3823"/><stop offset="1" stop-color="#1d130e"/></radialGradient>
    <linearGradient id="ruby" x1="0" y1="0" x2="1" y2="1"><stop stop-color="#ff6b43"/><stop offset="1" stop-color="#821f20"/></linearGradient>
    <linearGradient id="blue" x1="0" y1="0" x2="1" y2="1"><stop stop-color="#66bde8"/><stop offset="1" stop-color="#174a91"/></linearGradient>
    <linearGradient id="amber" x1="0" y1="0" x2="1" y2="1"><stop stop-color="#ffd36e"/><stop offset="1" stop-color="#b55b22"/></linearGradient>
  </defs>
  <rect width="512" height="512" rx="92" fill="url(#bg)"/>
  <circle cx="256" cy="256" r="174" fill="#120d0a" stroke="#8a6a45" stroke-width="18"/>
  <g stroke="#2a2119" stroke-width="18" stroke-linejoin="round">
    <path d="M256 103 305 197 256 240 207 197Z" fill="url(#blue)"/>
    <path d="M409 256 315 305 272 256 315 207Z" fill="url(#ruby)"/>
    <path d="M256 409 207 315 256 272 305 315Z" fill="url(#blue)"/>
    <path d="M103 256 197 207 240 256 197 305Z" fill="url(#ruby)"/>
    <path d="M364 148 337 249 276 241 264 177Z" fill="url(#amber)"/>
    <path d="M364 364 263 337 271 276 335 264Z" fill="url(#amber)"/>
    <path d="M148 364 175 263 236 271 248 335Z" fill="url(#amber)"/>
    <path d="M148 148 249 175 241 236 177 248Z" fill="url(#amber)"/>
  </g>
  <circle cx="256" cy="256" r="55" fill="#f0d8a1" stroke="#2a2119" stroke-width="18"/>
  <path d="M256 219c9 18 25 27 45 31-20 5-36 14-45 33-9-19-25-28-45-33 20-4 36-13 45-31Z" fill="#9e3d28"/>
</svg>