<svg xmlns="http://www.w3.org/2000/svg" viewBox="0 0 512 512">
  <rect width="512" height="512" rx="104" fill="#26352e"/>
  <path d="M256 66v116" stroke="#d5b665" stroke-width="24" stroke-linecap="square"/>
  <path d="M268 78h116l-28 40 28 40H268z" fill="#c66a3f"/>
  <ellipse cx="256" cy="398" rx="172" ry="46" fill="#18211d" opacity=".55"/>
  <g fill="#efe4c7" stroke="#efe4c7" stroke-linecap="round" stroke-linejoin="round">
    <circle cx="166" cy="224" r="28"/>
    <path d="M166 252v94M125 286l41-20 41 20M144 346l-18 52M188 346l18 52" stroke-width="24" fill="none"/>
    <circle cx="256" cy="204" r="31"/>
    <path d="M256 237v112M207 278l49-24 49 24M231 349l-24 55M281 349l24 55" stroke-width="27" fill="none"/>
    <circle cx="352" cy="226" r="27"/>
    <path d="M352 253v92M313 287l39-18 39 18M331 345l-18 51M373 345l18 51" stroke-width="23" fill="none"/>
  </g>
  <path d="M88 423h336" stroke="#d5b665" stroke-width="15"/>
</svg>
