<svg xmlns="http://www.w3.org/2000/svg" viewBox="0 0 512 512">
  <defs><linearGradient id="bg" x1="0" y1="0" x2="1" y2="1"><stop stop-color="#273328"/><stop offset="1" stop-color="#111713"/></linearGradient><linearGradient id="gold" x1="0" y1="0" x2="1" y2="1"><stop stop-color="#f0d17a"/><stop offset="1" stop-color="#9e6b28"/></linearGradient></defs>
  <rect width="512" height="512" rx="104" fill="url(#bg)"/>
  <path d="M96 91h320v188c0 94-59 159-160 202C155 438 96 373 96 279V91Z" fill="#8f2e32" stroke="url(#gold)" stroke-width="24"/>
  <path d="M108 199h296v72H108z" fill="#e5d7b1"/>
  <path d="M283 135c36 12 50 44 36 78 34 10 51 36 45 71-25-19-51-21-76-9l-15 29 39 35-25 71h-51l13-64-39-27-34 27 21 64h-53l-27-71 36-77-31-29 17-34 46 27 42-18 16-45 29-28Z" fill="url(#gold)"/>
  <path d="M190 211c-49-5-78-31-81-76 42 3 72 21 88 55" fill="none" stroke="url(#gold)" stroke-width="23"/>
</svg>
