<svg xmlns="http://www.w3.org/2000/svg" viewBox="0 0 512 512">
  <defs>
    <linearGradient id="bg" x1="0" y1="0" x2="1" y2="1"><stop stop-color="#273328"/><stop offset="1" stop-color="#111713"/></linearGradient>
    <linearGradient id="gold" x1="0" y1="0" x2="1" y2="1"><stop stop-color="#f1d47b"/><stop offset="1" stop-color="#a77728"/></linearGradient>
  </defs>
  <rect width="512" height="512" rx="92" fill="url(#bg)"/>
  <path d="M103 88h306v198c0 96-57 161-153 204-96-43-153-108-153-204V88Z" fill="#922e37" stroke="url(#gold)" stroke-width="18"/>
  <path d="M238 91h61v345h-61Z" fill="url(#gold)" opacity=".96"/>
  <path d="M256 151c43-34 91 8 66 51 42-4 66 39 39 72 30 28 4 79-38 73-2 44-59 55-82 17-37 25-82-11-67-52-43-18-42-75 1-91-16-41 30-77 67-51 2-8 7-14 14-19Z" fill="#efe5d1" stroke="#243e60" stroke-width="14"/>
  <circle cx="256" cy="258" r="44" fill="#243e60"/>
  <path d="M215 247h82M229 281h54" stroke="#efe5d1" stroke-width="12" stroke-linecap="round"/>
</svg>
