<svg xmlns="http://www.w3.org/2000/svg" viewBox="0 0 512 512" role="img" aria-labelledby="title description">
  <title id="title">ХРЕБЕТ</title>
  <desc id="description">Светлый бумажный самолётик между двумя горными гребнями</desc>
  <rect width="512" height="512" fill="#172020"/>
  <circle cx="371" cy="139" r="50" fill="#eadcb5" opacity=".82"/>
  <path d="M0 363 85 172l54 81 67-157 58 131 38-59 89 195v149H0Z" fill="#656d68"/>
  <path d="M0 405 86 224l34 65 19-36 28 62 39-219 27 129 31 2 38-59 25 77 64 118 121 37v112H0Z" fill="#bfc1b8"/>
  <path d="m86 224 34 65 19-36 28 62-31-12-18 29-28-46-36 91H13Zm120-128 27 129 31 2-25 31-19-18-13 97-31-50Zm96 72 25 77 64 118-61-83-19 28-31-71Z" fill="#e7e6da"/>
  <path d="m256 184 132 170-112-42-20 126-20-126-112 42Z" fill="#f1eee0" stroke="#172020" stroke-width="8" stroke-linejoin="round"/>
  <path d="m256 184-20 128-112 42 116-18Z" fill="#d4d1c4"/>
  <path d="m256 184 20 128 112 42-116-18Z" fill="#e6e2d4"/>
  <path d="m256 184 7 154-7 100-7-100Z" fill="#ef6a3c"/>
  <path d="m177 336 57-8M335 336l-57-8" stroke="#ef6a3c" stroke-width="8" stroke-linecap="square"/>
  <path d="M32 455h448" stroke="#ef6a3c" stroke-width="10"/>
</svg>
