<svg xmlns="http://www.w3.org/2000/svg" viewBox="0 0 512 512" role="img" aria-label="СПАНЧ: Пузырьковый Переполох">
  <defs>
    <linearGradient id="sea" x1="0" y1="0" x2="0" y2="1">
      <stop offset="0" stop-color="#19a9d8"/>
      <stop offset="1" stop-color="#075a88"/>
    </linearGradient>
    <filter id="shadow" x="-20%" y="-20%" width="140%" height="150%">
      <feDropShadow dx="0" dy="14" stdDeviation="8" flood-color="#033046" flood-opacity=".38"/>
    </filter>
  </defs>
  <rect width="512" height="512" rx="108" fill="url(#sea)"/>
  <circle cx="84" cy="106" r="26" fill="none" stroke="#dff9ff" stroke-width="10" opacity=".6"/>
  <circle cx="428" cy="154" r="17" fill="none" stroke="#dff9ff" stroke-width="8" opacity=".5"/>
  <g filter="url(#shadow)">
    <rect x="132" y="91" width="248" height="282" rx="39" fill="#ffd83d" stroke="#062f43" stroke-width="18"/>
    <circle cx="177" cy="142" r="18" fill="#e3bb2d"/>
    <circle cx="337" cy="297" r="20" fill="#e3bb2d"/>
    <circle cx="171" cy="295" r="14" fill="#e3bb2d"/>
    <ellipse cx="217" cy="205" rx="43" ry="55" fill="#fff" stroke="#062f43" stroke-width="12"/>
    <ellipse cx="295" cy="205" rx="43" ry="55" fill="#fff" stroke="#062f43" stroke-width="12"/>
    <circle cx="224" cy="207" r="18" fill="#66c8ec"/>
    <circle cx="288" cy="207" r="18" fill="#66c8ec"/>
    <circle cx="226" cy="207" r="8" fill="#062f43"/>
    <circle cx="286" cy="207" r="8" fill="#062f43"/>
    <path d="M200 274 Q256 325 312 274" fill="none" stroke="#062f43" stroke-width="13" stroke-linecap="round"/>
    <rect x="226" y="296" width="25" height="34" fill="#fff" stroke="#062f43" stroke-width="8"/>
    <rect x="261" y="296" width="25" height="34" fill="#fff" stroke="#062f43" stroke-width="8"/>
    <rect x="132" y="348" width="248" height="45" fill="#fff" stroke="#062f43" stroke-width="14"/>
    <path d="M132 390h248v61H132z" fill="#a76d43" stroke="#062f43" stroke-width="14"/>
    <path d="M238 351h36l-5 50-13 19-13-19z" fill="#ea4d57" stroke="#062f43" stroke-width="8"/>
  </g>
  <circle cx="407" cy="370" r="45" fill="rgba(222,250,255,.18)" stroke="#e3fbff" stroke-width="9"/>
  <path d="M385 352q18-19 34 0" fill="none" stroke="#fff" stroke-width="8" stroke-linecap="round" opacity=".7"/>
</svg>
