<svg xmlns="http://www.w3.org/2000/svg" viewBox="0 0 1024 1024">
  <rect width="1024" height="1024" rx="220" fill="#090a0d"/>
  <path d="M118 554H250L326 438L401 680L488 260L579 734L654 390L724 586H786" fill="none" stroke="#42d9ff" stroke-width="106" stroke-linecap="square" stroke-linejoin="miter" transform="translate(34 30)"/>
  <path d="M118 554H250L326 438L401 680L488 260L579 734L654 390L724 586H786" fill="none" stroke="#f3efe4" stroke-width="90" stroke-linecap="square" stroke-linejoin="miter"/>
  <path d="M118 554H250L326 438L401 680L488 260L579 734L654 390L724 586H786" fill="none" stroke="#d9ff45" stroke-width="28" stroke-linecap="square" stroke-linejoin="miter"/>
  <rect x="820" y="342" width="72" height="340" fill="#d9ff45"/>
  <rect x="906" y="416" width="40" height="192" fill="#42d9ff"/>
</svg>
