<svg xmlns="http://www.w3.org/2000/svg" viewBox="0 0 512 512">
  <defs>
    <radialGradient id="bg" cx="35%" cy="24%" r="90%">
      <stop offset="0" stop-color="#82966a"/>
      <stop offset="1" stop-color="#263a2c"/>
    </radialGradient>
    <radialGradient id="ball" cx="30%" cy="24%" r="78%">
      <stop offset="0" stop-color="#ffffff"/>
      <stop offset=".35" stop-color="#ecebd7"/>
      <stop offset=".78" stop-color="#a9b8aa"/>
      <stop offset="1" stop-color="#5d7164"/>
    </radialGradient>
    <linearGradient id="flag" x1="0" x2="1">
      <stop stop-color="#e9dfb9"/>
      <stop offset="1" stop-color="#bfae72"/>
    </linearGradient>
  </defs>
  <rect width="512" height="512" rx="112" fill="url(#bg)"/>
  <path d="M41 372c53-69 110-88 174-55 55 28 92 22 130-21 34-38 75-41 126-10v144H41z" fill="#516c48"/>
  <path d="M25 413c74-53 135-57 184-13 50 44 101 42 155-7 39-36 80-34 123 5v89H25z" fill="#3f5b3d"/>
  <g opacity=".34" fill="#b8c889">
    <circle cx="86" cy="385" r="12"/><circle cx="135" cy="420" r="9"/><circle cx="418" cy="385" r="14"/><circle cx="360" cy="438" r="8"/><circle cx="232" cy="400" r="7"/>
  </g>
  <ellipse cx="214" cy="351" rx="106" ry="45" fill="#1c2b21" opacity=".33"/>
  <circle cx="196" cy="300" r="104" fill="url(#ball)" stroke="#e8ead8" stroke-width="8"/>
  <circle cx="159" cy="263" r="17" fill="#fff" opacity=".72"/>
  <path d="M334 102v235" stroke="#a27b3c" stroke-width="18" stroke-linecap="round"/>
  <path d="M342 116l119 35-119 64z" fill="url(#flag)"/>
  <ellipse cx="334" cy="344" rx="60" ry="24" fill="#17241a"/>
  <ellipse cx="334" cy="338" rx="42" ry="14" fill="#0c1510"/>
</svg>
