<svg xmlns="http://www.w3.org/2000/svg" viewBox="0 0 512 512">
  <rect width="512" height="512" fill="#e8e0cf"/>
  <path d="M256 34 448 145v222L256 478 64 367V145Z" fill="#20231e"/>
  <g stroke="#20231e" stroke-width="10">
    <path d="m256 75 64 37v74l-64 37-64-37v-74Z" fill="#d8ceb9"/>
    <path d="m187 194 64 37v74l-64 37-64-37v-74Z" fill="#0c9b93"/>
    <path d="m325 194 64 37v74l-64 37-64-37v-74Z" fill="#df6863"/>
    <path d="m256 313 64 37v74l-64 37-64-37v-74Z" fill="#d8ceb9"/>
  </g>
  <circle cx="187" cy="268" r="35" fill="#f4eedf" stroke="#20231e" stroke-width="13"/>
  <circle cx="325" cy="268" r="35" fill="#f4eedf" stroke="#20231e" stroke-width="13"/>
  <circle cx="187" cy="268" r="22" fill="none" stroke="#0c9b93" stroke-width="9"/>
  <circle cx="325" cy="268" r="22" fill="none" stroke="#df6863" stroke-width="9"/>
</svg>
