<svg xmlns="http://www.w3.org/2000/svg" viewBox="0 0 512 512">
  <rect width="512" height="512" fill="#e6dece"/>
  <rect x="54" y="54" width="404" height="404" fill="#1b1a17"/>
  <g fill="#f3ecdf">
    <rect x="92" y="92" width="60" height="60"/>
    <rect x="164" y="92" width="60" height="60"/>
    <rect x="236" y="92" width="60" height="60"/>
    <rect x="308" y="92" width="60" height="60"/>
    <rect x="380" y="92" width="40" height="60"/>
    <rect x="92" y="164" width="60" height="60"/>
    <rect x="164" y="164" width="60" height="60"/>
    <rect x="236" y="164" width="60" height="60"/>
    <rect x="308" y="164" width="60" height="60"/>
    <rect x="380" y="164" width="40" height="60"/>
    <rect x="92" y="236" width="60" height="60"/>
    <rect x="164" y="236" width="60" height="60"/>
    <rect x="236" y="236" width="60" height="60"/>
    <rect x="308" y="236" width="60" height="60"/>
    <rect x="380" y="236" width="40" height="60"/>
    <rect x="92" y="308" width="60" height="60"/>
    <rect x="164" y="308" width="60" height="60"/>
    <rect x="236" y="308" width="60" height="60"/>
    <rect x="308" y="308" width="60" height="60"/>
    <rect x="380" y="308" width="40" height="60"/>
    <rect x="92" y="380" width="60" height="40"/>
    <rect x="164" y="380" width="60" height="40"/>
    <rect x="236" y="380" width="60" height="40"/>
    <rect x="308" y="380" width="60" height="40"/>
    <rect x="380" y="380" width="40" height="40"/>
  </g>
  <circle cx="122" cy="266" r="35" fill="#d84932" stroke="#1b1a17" stroke-width="12"/>
  <circle cx="266" cy="122" r="35" fill="#315fae" stroke="#1b1a17" stroke-width="12"/>
  <path d="M36 266h58m-26-26 26 26-26 26" fill="none" stroke="#d84932" stroke-width="18" stroke-linecap="square" stroke-linejoin="miter"/>
  <path d="M266 36v58m-26-26 26 26 26-26" fill="none" stroke="#315fae" stroke-width="18" stroke-linecap="square" stroke-linejoin="miter"/>
</svg>
