<svg xmlns="http://www.w3.org/2000/svg" viewBox="0 0 512 512">
  <defs>
    <radialGradient id="paper" cx="30%" cy="20%" r="90%">
      <stop offset="0" stop-color="#f1dfae"/>
      <stop offset="1" stop-color="#c9ad73"/>
    </radialGradient>
  </defs>
  <rect width="512" height="512" rx="96" fill="#2c2017"/>
  <rect x="48" y="48" width="416" height="416" rx="38" fill="url(#paper)" stroke="#76502e" stroke-width="14"/>
  <path d="M256 65v382" stroke="#805634" stroke-opacity=".18" stroke-width="5"/>
  <g fill="none" stroke="#56301e" stroke-linecap="round" stroke-linejoin="round">
    <path d="M257 371V139" stroke-width="15"/>
    <ellipse cx="257" cy="305" rx="62" ry="19" stroke-width="11"/>
    <ellipse cx="257" cy="260" rx="88" ry="24" stroke-width="11"/>
    <ellipse cx="257" cy="211" rx="113" ry="29" stroke-width="11"/>
    <path d="M145 390h224M180 390l-28 39M334 390l28 39" stroke-width="13"/>
    <circle cx="171" cy="366" r="43" stroke-width="13"/>
    <circle cx="343" cy="366" r="43" stroke-width="13"/>
    <path d="M171 323v86M128 366h86M343 323v86M300 366h86" stroke-width="7"/>
  </g>
  <g fill="none" stroke="#984a34" stroke-width="8" stroke-linecap="round">
    <path d="M112 118c42-19 78-22 111-8M382 119c-29-16-58-18-87-7"/>
    <path d="M388 160l19-23M388 160l25 6"/>
  </g>
  <text x="92" y="104" fill="#713b27" font-family="Georgia,serif" font-size="34" font-style="italic">LDV</text>
</svg>