<svg xmlns="http://www.w3.org/2000/svg" viewBox="0 0 512 512" role="img" aria-label="ГЛУБИНА 13">
  <rect width="512" height="512" rx="82" fill="#041012"/>
  <path d="M68 366c63-33 120-49 188-49s125 16 188 49v82H68z" fill="#0b282a"/>
  <circle cx="256" cy="245" r="164" fill="none" stroke="#1f4a49" stroke-width="10"/>
  <circle cx="256" cy="245" r="111" fill="none" stroke="#346b64" stroke-width="8"/>
  <path d="M256 84v322M95 245h322" stroke="#72b9a7" stroke-width="7" opacity=".45"/>
  <path d="M180 257c0-43 34-78 76-78s76 35 76 78c0 27-14 51-36 65l-13 43h-54l-13-43c-22-14-36-38-36-65Z" fill="#c6dfd5" stroke="#041012" stroke-width="12"/>
  <circle cx="256" cy="253" r="35" fill="#153a3a" stroke="#72b9a7" stroke-width="8"/>
  <path d="m256 253 82-53" stroke="#72b9a7" stroke-width="8" stroke-linecap="round"/>
  <circle cx="256" cy="253" r="8" fill="#72b9a7"/>
  <text x="256" y="468" text-anchor="middle" fill="#c6dfd5" font-family="system-ui,sans-serif" font-size="54" font-weight="900" letter-spacing="10">13</text>
</svg>
