<svg xmlns="http://www.w3.org/2000/svg" viewBox="0 0 512 512" role="img" aria-label="ПЕРЕПЛЁТ">
  <rect width="512" height="512" fill="#e6ddc8"/>
  <g opacity=".18" stroke="#514b40" stroke-width="3">
    <path d="M0 64h512M0 128h512M0 192h512M0 256h512M0 320h512M0 384h512M0 448h512"/>
    <path d="M64 0v512M128 0v512M192 0v512M256 0v512M320 0v512M384 0v512M448 0v512"/>
  </g>
  <path d="M40 184h432v68H40zM40 278h432v68H40z" fill="#304a73"/>
  <path d="M184 40h68v432h-68zM278 40h68v432h-68z" fill="#a94b3d"/>
  <rect x="168" y="168" width="176" height="176" transform="rotate(45 256 256)" fill="#e6ddc8" stroke="#292a27" stroke-width="20"/>
  <rect x="211" y="211" width="90" height="90" transform="rotate(45 256 256)" fill="#292a27"/>
  <path d="M224 256h64M256 224v64" stroke="#e6ddc8" stroke-width="12" stroke-linecap="square"/>
</svg>
