<svg xmlns="http://www.w3.org/2000/svg" viewBox="0 0 512 512">
  <rect width="512" height="512" rx="112" fill="#efe7d3"/>
  <rect x="72" y="42" width="368" height="428" rx="42" fill="#2c735d" stroke="#102a24" stroke-width="24"/>
  <path d="M72 256h368M256 42v428" stroke="#f7f1df" stroke-width="13" opacity=".96"/>
  <circle cx="256" cy="256" r="72" fill="none" stroke="#f7f1df" stroke-width="13"/>
  <path d="M184 42v74h144V42M184 470v-74h144v74" fill="none" stroke="#f7f1df" stroke-width="13"/>
  <g transform="rotate(-18 256 256)">
    <path d="M145 304c0-29 23-52 52-52h112l68-54 26 34-61 70c-10 12-25 19-41 19H197c-29 0-52-8-52-17Z" fill="#f04f32" stroke="#102a24" stroke-width="18" stroke-linejoin="round"/>
    <circle cx="194" cy="286" r="27" fill="#f1c84b" stroke="#102a24" stroke-width="13"/>
    <path d="M333 248l36 44" stroke="#f7f1df" stroke-width="14" stroke-linecap="round"/>
  </g>
  <path d="M100 104h92" stroke="#f1c84b" stroke-width="22" stroke-linecap="square"/>
  <path d="M320 408h92" stroke="#335fbd" stroke-width="22" stroke-linecap="square"/>
</svg>
