<svg xmlns="http://www.w3.org/2000/svg" viewBox="0 0 512 512" role="img" aria-label="ДОКТРИНА">
  <rect width="512" height="512" fill="#202424"/>
  <path d="M86 54h260l80 80v324H86z" fill="#e8e0cb"/>
  <path d="M346 54v80h80" fill="#c8bea6"/>
  <path d="M124 116h160M124 154h224M124 192h224" stroke="#4a626a" stroke-width="13"/>
  <path d="M124 250h84v132h-84zm114-44h62v176h-62zm92 82h58v94h-58z" fill="#68704e"/>
  <circle cx="343" cy="343" r="78" fill="none" stroke="#8b3f36" stroke-width="18"/>
  <circle cx="343" cy="343" r="52" fill="none" stroke="#8b3f36" stroke-width="7" stroke-dasharray="13 9"/>
  <path d="M313 365V321h30c26 0 43 14 43 37s-17 37-43 37h-30v-30zm22 0h8c12 0 19-6 19-17s-7-17-19-17h-8z" fill="#8b3f36"/>
  <path d="M78 454h356" stroke="#8b3f36" stroke-width="14"/>
</svg>
